<svg width="16" height="18" viewBox="0 0 16 18" fill="none" xmlns="http://www.w3.org/2000/svg">
<g clip-path="url(#clip0_123_7)">
<path d="M5.625 1.125V2.25H10.125V1.125C10.125 0.503789 10.6277 0 11.25 0C11.8723 0 12.375 0.503789 12.375 1.125V2.25H14.0625C14.9941 2.25 15.75 3.00551 15.75 3.9375V5.625H0V3.9375C0 3.00551 0.755508 2.25 1.6875 2.25H3.375V1.125C3.375 0.503789 3.87773 0 4.5 0C5.12227 0 5.625 0.503789 5.625 1.125ZM0 6.75H15.75V16.3125C15.75 17.2441 14.9941 18 14.0625 18H1.6875C0.755508 18 0 17.2441 0 16.3125V6.75ZM2.25 10.6875C2.25 10.9969 2.50172 11.25 2.8125 11.25H3.9375C4.24687 11.25 4.5 10.9969 4.5 10.6875V9.5625C4.5 9.25313 4.24687 9 3.9375 9H2.8125C2.50172 9 2.25 9.25313 2.25 9.5625V10.6875ZM6.75 10.6875C6.75 10.9969 7.00313 11.25 7.3125 11.25H8.4375C8.74687 11.25 9 10.9969 9 10.6875V9.5625C9 9.25313 8.74687 9 8.4375 9H7.3125C7.00313 9 6.75 9.25313 6.75 9.5625V10.6875ZM11.8125 9C11.5031 9 11.25 9.25313 11.25 9.5625V10.6875C11.25 10.9969 11.5031 11.25 11.8125 11.25H12.9375C13.2469 11.25 13.5 10.9969 13.5 10.6875V9.5625C13.5 9.25313 13.2469 9 12.9375 9H11.8125ZM2.25 15.1875C2.25 15.4969 2.50172 15.75 2.8125 15.75H3.9375C4.24687 15.75 4.5 15.4969 4.5 15.1875V14.0625C4.5 13.7531 4.24687 13.5 3.9375 13.5H2.8125C2.50172 13.5 2.25 13.7531 2.25 14.0625V15.1875ZM7.3125 13.5C7.00313 13.5 6.75 13.7531 6.75 14.0625V15.1875C6.75 15.4969 7.00313 15.75 7.3125 15.75H8.4375C8.74687 15.75 9 15.4969 9 15.1875V14.0625C9 13.7531 8.74687 13.5 8.4375 13.5H7.3125ZM11.25 15.1875C11.25 15.4969 11.5031 15.75 11.8125 15.75H12.9375C13.2469 15.75 13.5 15.4969 13.5 15.1875V14.0625C13.5 13.7531 13.2469 13.5 12.9375 13.5H11.8125C11.5031 13.5 11.25 13.7531 11.25 14.0625V15.1875Z" fill="#95AEC2"/>
</g>
<defs>
<clipPath id="clip0_123_7">
<rect width="15.75" height="18" fill="white"/>
</clipPath>
</defs>
</svg>
