<svg width="198" height="36" viewBox="0 0 198 36" fill="none" xmlns="http://www.w3.org/2000/svg">
<path d="M18 27.3746C15.2952 26.9844 11.1162 25.7455 11.259 21.3897C11.4023 17.0287 15.1757 12.1653 18 8.50631V0C7.03705 0.213494 -0.556951 9.13416 0.0320216 18.7365C0.635641 28.5839 8.10619 35.4485 18 36V27.3746Z" fill="#0060AE"/>
<path d="M24.9964 22.042C24.8489 17.6102 20.8588 12.6554 18 9V28C20.7062 27.6493 25.1441 26.473 24.9964 22.042Z" fill="#0060AE"/>
<path d="M19 0V1.19567C27.8049 1.72056 34.8084 9.05566 34.8084 18C34.8084 26.9443 27.8049 34.2794 19 34.8043V36C28.4623 35.4746 36 27.6028 36 18C36 8.39746 28.4623 0.526 19 0Z" fill="#0060AE"/>
<path d="M49.0314 15.462L50.0344 11.7875C50.0344 11.7875 50.3946 10 48.5324 10H45.3974C43.9729 10 43.0381 11.7417 43.0381 11.7417L40.0317 22.7577C40.0317 22.7577 39.6799 24.874 41.3203 24.874H44.5259C46.1487 24.874 47.018 22.8403 47.018 22.8403L48.2184 18.4414H45.3337L44.2307 22.4824H42.9915L45.7459 12.3905H46.9849L46.1469 15.462H49.0314ZM63.0989 10H66.0778L65.5976 14.0206L67.3648 10H70.3445L66.5345 17.053L66.4274 24.874H63.4472L63.9738 20.1007L61.8607 24.874H58.8856L63.0588 17.053L63.0989 10ZM78.6872 24.874H81.5716L83.3672 18.2944H84.6075L82.8116 24.874H85.6965L89.7559 10H86.8712L85.2599 15.9035H84.02L85.6311 10H82.7464L78.6872 24.874ZM92.6299 10H97.6819L97.0293 12.3905H94.8623L93.9035 15.9035H96.0707L95.4182 18.2944H93.251L92.108 22.4824H94.2752L93.6226 24.874H88.5704L92.6299 10ZM109.283 17.3392L109.439 16.767C109.439 16.767 110.538 12.3395 108.708 12.3395H106.523L107.161 10H104.277L103.638 12.3395H101.382C99.614 12.3395 98.2157 17.0938 98.2157 17.0938L98.0709 17.6249C98.0709 17.6249 96.8332 22.5933 98.4425 22.5933H100.84L100.217 24.874H103.102L103.724 22.5933H106.016C107.724 22.5933 109.283 17.3392 109.283 17.3392ZM101.492 20.2022H100.253L101.742 14.7442H102.982L101.492 20.2022ZM105.617 20.2022H104.378L105.867 14.7442H107.107L105.617 20.2022ZM122.622 10H127.675L127.022 12.3905H124.854L123.896 15.9035H126.063L125.411 18.2944H123.243L122.1 22.4824H124.268L123.615 24.874H118.563L122.622 10ZM126.085 24.874H128.97L132.377 12.3905H134.544L135.197 10H130.145L126.085 24.874ZM145.998 14.3631L146.703 11.7784C146.703 11.7784 147.304 10 149.143 10H152.26C153.993 10 153.71 11.7827 153.71 11.7827L152.658 15.6378C152.32 16.8776 150.876 16.4816 150.705 17.1093C150.533 17.7373 152.248 17.1427 151.934 18.2928L150.682 22.8807C150.682 22.8807 149.998 24.874 148.201 24.874H145.084C143.321 24.874 143.684 22.8387 143.684 22.8387L144.512 19.8075H147.396L146.666 22.4824H147.905L149.048 18.2944H146.94L147.593 15.9035H149.701L150.66 12.3905H149.421L148.882 14.3631H145.998ZM168.44 15.4843L169.284 12.3913H172.813L173.465 10H167.052L162.993 24.874H168.065C169.681 24.874 171.252 20.2933 171.252 20.2933L171.47 19.4949C171.47 19.4949 172.405 15.4843 170.661 15.4843H168.44ZM167.787 17.8759H169.027L167.77 22.4824H166.53L167.787 17.8759ZM185.029 10H187.914L183.855 24.874H180.97L185.029 10ZM180.907 20.4198L181.105 19.6949C181.105 19.6949 182.052 15.4914 180.313 15.4914H178.127L179.626 10H176.741L172.682 24.8734H177.737C179.481 24.8734 180.907 20.4198 180.907 20.4198ZM177.46 22.4824H176.22L177.476 17.8823H178.715L177.46 22.4824ZM191 10H198L197.347 12.3905H195.122L191.715 24.874H188.842L192.249 12.3905H190.348L191 10ZM162.652 15.462L163.655 11.7875C163.655 11.7875 164.015 10 162.153 10H159.018C157.593 10 156.658 11.7417 156.658 11.7417L153.652 22.7577C153.652 22.7577 153.3 24.874 154.941 24.874H158.146C159.77 24.874 160.639 22.8403 160.639 22.8403L161.84 18.4414H158.954L157.851 22.4824H156.612L159.366 12.3905H160.605L159.767 15.462H162.652ZM137.485 24.874L138.148 22.4456H136.908L136.245 24.874H133.361L136.922 11.8255C136.922 11.8255 137.42 10 139.375 10H144.43L140.37 24.874H137.485ZM140.892 12.3913H139.653L137.562 20.054H138.801L140.892 12.3913ZM56.3814 24.874L60.4408 10H55.3868C53.4312 10 52.9336 11.8255 52.9336 11.8255L49.3727 24.874H52.2574L52.9201 22.4456H54.1595L53.4967 24.874H56.3814ZM54.8121 20.054H53.5728L55.6641 12.3913H56.9033L54.8121 20.054ZM72.8676 24.874L73.5303 22.4456H72.291L71.6282 24.874H68.7436L72.3047 11.8255C72.3047 11.8255 72.8021 10 74.7576 10H79.8116L75.7523 24.874H72.8676ZM76.2743 12.3913H75.0349L72.9439 20.054H74.183L76.2743 12.3913ZM112.554 12.5172H114.454L111.048 25H113.921L117.328 12.5172H119.553L120.205 10.1256H113.207L112.554 12.5172Z" fill="#0060AE"/>
</svg>
